#!OML:ASF H:\Punching\Project 1\Capture day 1\Session 1\female.ASF
:FULLY-SPECIFIED
:DEGREES
1206
root 2.39739 12.893 -0.418998 20.4802 -4.89704 5.59747
lowerback 19.7999 2.83721 -4.15098
upperback -1.46284 2.49503 -2.09867
thorax -12.9083 1.34314 -0.750104
lowerneck -15.442 5.48125 10.698
upperneck 11.2578 5.85704 -5.41497
head 6.42711 2.87027 -2.86292
rclavicle 2.10712e-014 -1.15295e-014
rhumerus -1.72028 30.4906 -87.4589
rradius 122.656
rwrist -27.0253
rhand -13.1354 -17.5491
rfingers 7.12502
rthumb 12.9627 -47.1265
lclavicle 2.10712e-014 -1.15295e-014
lhumerus 32.3628 -31.423 71.3089
lradius 138.789
lwrist 14.5914
lhand -22.9126 8.21069
lfingers 7.12502
lthumb 3.52749 38.1612
rfemur -36.5536 -37.5419 -5.92463
rtibia 84.0685
rfoot -24.734 -5.57477
rtoes -27.5478
lfemur -70.0035 8.85497 -16.2789
ltibia 74.0684
lfoot -19.1372 3.80364
ltoes -16.8011
1207
root 2.41939 12.8021 -0.456446 20.7201 -4.80785 5.78831
lowerback 19.7177 3.00893 -4.12749
upperback -1.57178 2.74148 -2.015
thorax -12.9962 1.46034 -0.747096
lowerneck -15.6188 5.21692 10.1866
upperneck 11.2392 5.60161 -5.46591
head 6.41542 2.71789 -2.82442
rclavicle -1.82882e-014 -7.55382e-015
rhumerus 0.856363 30.5872 -86.6383
rradius 119.552
rwrist -26.4911
rhand -12.9624 -17.8483
rfingers 7.12502
rthumb 13.1294 -47.415
lclavicle -1.82882e-014 -7.55382e-015
lhumerus 32.6837 -31.4133 71.6974
lradius 138.796
lwrist 14.8344
lhand -22.9704 8.27763
lfingers 7.12502
lthumb 3.47168 38.2291
rfemur -35.9174 -37.8143 -5.67083
rtibia 83.2068
rfoot -27.0435 -7.43978
rtoes -29.4137
lfemur -70.8731 8.5425 -16.4241
ltibia 74.7404
lfoot -19.7325 4.04
ltoes -17.5283
1208
root 2.44116 12.7199 -0.492395 20.9762 -4.88942 6.04487
lowerback 19.6068 3.24852 -4.1933
upperback -1.66712 3.05249 -1.98224
thorax -13.0565 1.61106 -0.768581
lowerneck -15.8254 4.94993 9.66107
upperneck 11.2425 5.35051 -5.55006
head 6.41787 2.56397 -2.79321
rclavicle -1.47101e-014 1.19271e-014
rhumerus 3.71572 30.6724 -85.7029
rradius 116.159
rwrist -26.1445
rhand -13.2282 -18.1663
rfingers 7.12502
rthumb 12.8732 -47.7493
lclavicle -1.47101e-014 1.19271e-014
lhumerus 33.1076 -31.3235 72.0185
lradius 138.74
lwrist 15.0708
lhand -22.9954 8.29288
lfingers 7.12502
lthumb 3.44754 38.2448
rfemur -35.5604 -38.0781 -5.4841
rtibia 82.5312
rfoot -29.5217 -9.18604
rtoes -30.7215
lfemur -71.759 8.40329 -16.7574
ltibia 75.4113
lfoot -20.1527 4.32996
ltoes -18.1411
1209
root 2.46441 12.6444 -0.527733 21.2427 -5.12451 6.34253
lowerback 19.4723 3.54005 -4.27863
upperback -1.73859 3.42259 -2.01014
thorax -13.0752 1.78741 -0.862469
lowerneck -16.0751 4.68485 9.1302
upperneck 11.253 5.10537 -5.65628
head 6.432 2.41009 -2.76685
rclavicle 3.45885e-014 -2.54444e-014
rhumerus 6.86363 30.7133 -84.6857
rradius 112.423
rwrist -25.8857
rhand -13.8266 -18.5885
rfingers 7.12502
rthumb 12.2963 -48.207
lclavicle 3.45885e-014 -2.54444e-014
lhumerus 33.65 -31.1617 72.2487
lradius 138.629
lwrist 15.2825
lhand -22.9716 8.2298
lfingers 7.12502
lthumb 3.47052 38.1813
rfemur -35.5298 -38.336 -5.38612
rtibia 82.0987
rfoot -31.8347 -10.6309
rtoes -31.4966
lfemur -72.6771 8.41676 -17.2503
ltibia 76.1069
lfoot -20.4273 4.66888
ltoes -18.4575
1210
root 2.49013 12.5731 -0.563657 21.5024 -5.48205 6.65097
lowerback 19.3362 3.86684 -4.31218
upperback -1.77381 3.8453 -2.10179
thorax -13.0443 1.98118 -1.07005
lowerneck -16.3569 4.41726 8.6192
upperneck 11.2327 4.85579 -5.78968
head 6.44368 2.25181 -2.75256
rclavicle -3.4191e-014 -1.59028e-015
rhumerus 10.2888 30.6704 -83.6201
rradius 108.302
rwrist -25.6249
rhand -14.5833 -19.1542
rfingers 7.12502
rthumb 11.5666 -48.815
lclavicle -3.4191e-014 -1.59028e-015
lhumerus 34.2988 -30.9765 72.3738
lradius 138.495
lwrist 15.4155
lhand -22.9084 8.10507
lfingers 7.12502
lthumb 3.53153 38.0556
rfemur -35.8297 -38.5916 -5.39327
rtibia 81.9508
rfoot -33.6879 -11.6075
rtoes -31.7108
lfemur -73.6194 8.54787 -17.8374
ltibia 76.8448
lfoot -20.5963 5.04063
ltoes -18.5794
1211
root 2.51884 12.5025 -0.601487 21.7371 -5.92373 6.93288
lowerback 19.2293 4.20827 -4.23454
upperback -1.76999 4.30644 -2.24705
thorax -12.9708 2.18236 -1.40969
lowerneck -16.6495 4.14873 8.13975
upperneck 11.1569 4.6012 -5.9433
head 6.44136 2.09035 -2.75036
rclavicle -1.43125e-014 1.11319e-014
rhumerus 13.9396 30.5064 -82.571
rradius 103.764
rwrist -25.2881
rhand -15.2733 -19.8224
rfingers 7.12502
rthumb 10.9012 -49.5194
lclavicle -1.43125e-014 1.11319e-014
lhumerus 35.007 -30.8075 72.3976
lradius 138.372
lwrist 15.4179
lhand -22.8325 7.94856
lfingers 7.12502
lthumb 3.60488 37.8978
rfemur -36.4273 -38.8417 -5.49665
rtibia 82.0968
rfoot -35.0652 -12.1651
rtoes -31.9046
lfemur -74.5683 8.76064 -18.4336
ltibia 77.6377
lfoot -20.724 5.40449
ltoes -18.6002
